<?xml version="1.0" encoding="utf-8"?>
<!-- Generator: Adobe Illustrator 22.1.0, SVG Export Plug-In . SVG Version: 6.00 Build 0)  -->
<svg version="1.1" xmlns="http://www.w3.org/2000/svg" xmlns:xlink="http://www.w3.org/1999/xlink" x="0px" y="0px"
	 viewBox="0 0 1500 500" style="enable-background:new 0 0 1500 500;" xml:space="preserve">
<style type="text/css">
	.st0{fill:#00AFDE;stroke:#000000;}
	.Arco_x0020_verde{fill:url(#SVGID_1_);stroke:#FFFFFF;stroke-width:0.25;stroke-miterlimit:1;}
	.st1{fill:#00AFDE;}
	.st2{fill:#FFFFFF;}
</style>
<symbol  id="Simboli_reali_vettoriali_2" viewBox="-153.3 -47.7 306.6 95.5">
	<path class="st0" d="M-54,16.4c2.7-2.3,5.9-4.5,9.6-6.4c-0.4,3.8-0.3,7.2-0.2,9.6C-47.7,18.4-50.8,17.4-54,16.4z M-36.8-12.3
		c-0.1,0.2-0.2,0.4-0.4,0.5c-13.5,0.6-23.3,6.2-29.8,11.9c-5.8,5.1-9,10.2-9.8,11.6c-5.5-0.7-11.1-1.1-16.7-1.1h0h0
		c-1.7,0-3.4,0.1-5.1,0.3c-5.8-2.9-9.2-5.2-8.7-6.3c0.7-1.7,10.8,0.4,23.8,4.7c-11.8-6.7-19.7-12.8-18.8-14.4
		c1-1.6,10.5,1.9,22.7,7.9c-10.6-8.3-17.5-15.4-16.3-16.9c1.2-1.4,10,3.4,21.2,11c-9.2-9.6-15-17.7-13.6-18.9
		c1.4-1.2,9.4,4.7,19.3,13.8c-7.7-10.7-12.3-19.4-10.8-20.4c1.5-1,8.6,6,17,16.1c-6-11.6-9.3-20.7-7.7-21.5c1.6-0.8,7.7,7,14.6,18.1
		c-4.3-12.2-6.3-21.5-4.6-22.1c1.7-0.5,6.6,7.9,11.8,19.7c-2.5-12.5-3.1-21.9-1.4-22.1c1.8-0.3,5.5,8.6,8.9,20.7
		c-0.7-12.5,0-21.7,1.8-21.7c1.8,0,4.2,9,5.9,21.3c1.1-12.2,3.2-21.1,5-20.9c1.6,0.2,2.7,7.4,2.8,17.7
		C-30.1-20.3-33.9-16.6-36.8-12.3z M-55.2,16.1c-2-0.6-4.1-1.1-6.2-1.6c1-1,2-2,3.2-3c3.8-3.3,8.8-6.6,15-8.9
		c-0.5,2.2-0.9,4.3-1.1,6.2c-4.3,2.1-7.8,4.6-10.7,7.1C-55.1,16-55.1,16-55.2,16.1z M-5.8,11.9c0,0,0-10.2,0-18.7
		c0-8.5-3.3-18.3-11.2-13.1c-7.9,5.2-21.9,31.9-2.7,53.3c0,0-2.5,7.5-20.2,0.2c0,0,6.1,1.4,9.7,0c-1.9-1.3-5.1-2.7-12.6-1.7
		c-12.5,1.5-16.5,7.9-16.5,7.9c-0.2-1.2-0.2-2.3,0.1-3.4c-30.8-9-64.4-5.5-93.1,10.3c0.7-2,2.5-6.2,8.7-11.5
		c6.2-5.2,16.9-11.4,34.5-13.7c16.2-1.9,32.7-0.9,48.6,3.2c0.6-0.2,1.2-0.3,1.9-0.5c-23.4-6.2-48-6.1-71.3,0.5c0,0,2.9-2.4,9.1-5.3
		c6.2-2.8,15.7-6.1,28.3-6.4c16.9,0.1,33.8,3.2,49.9,9.4c-0.7-7.7-0.9-31.1,19-43.8c24-15.4,8.5-21,20-25.6v61
		C-3.7,14-5.1,13.8-5.8,11.9z M-75.6,11.8c0.1-0.1,0.1-0.2,0.2-0.3c0.4-0.6,1-1.5,1.8-2.6c1.6-2.2,4.1-5.1,7.4-8
		C-60-4.5-50.7-10-37.8-10.7c-1,1.6-1.9,3.3-2.6,5.1c-9.7,1.9-17,6.4-22.2,11c-3,2.6-5.3,5.2-6.9,7.4
		C-71.6,12.4-73.6,12.1-75.6,11.8z M-68,13c-0.2,0-0.3-0.1-0.5-0.1c1.6-2,3.7-4.4,6.5-6.8C-57,1.8-50.1-2.5-41-4.4
		c-0.7,1.6-1.2,3.3-1.7,5.1c-0.1,0.2-0.1,0.5-0.2,0.7c-6.7,2.3-12,5.8-16,9.3c-1.4,1.2-2.6,2.4-3.7,3.5C-64.4,13.8-66.2,13.4-68,13z
		"/>
	<path class="st0" d="M44.6,19.6c0.1-2.4,0.2-5.8-0.2-9.6c3.8,1.9,7,4.2,9.6,6.4C50.8,17.4,47.7,18.4,44.6,19.6z M25.7-23.3
		c0.1-10.2,1.1-17.5,2.8-17.7c1.8-0.2,3.9,8.7,5,20.9c1.7-12.3,4.1-21.4,5.9-21.3c1.8,0,2.5,9.3,1.8,21.7c3.5-12.2,7.1-21,8.9-20.7
		c1.8,0.3,1.2,9.7-1.4,22.1C53.9-30,58.8-38.4,60.6-37.9c1.7,0.5-0.3,9.9-4.6,22.1C62.9-27,68.9-34.7,70.5-34
		c1.6,0.8-1.7,9.9-7.7,21.5c8.4-10.2,15.5-17.1,17-16.1c1.5,1-3.1,9.7-10.8,20.4c9.9-9,17.9-15,19.3-13.8c1.4,1.2-4.4,9.2-13.6,18.9
		c11.1-7.6,20-12.4,21.2-11c1.2,1.4-5.8,8.6-16.3,16.9c12.2-6,21.7-9.5,22.7-7.9c1,1.6-7,7.7-18.8,14.4c13-4.3,23.1-6.3,23.8-4.7
		c0.5,1.1-2.9,3.4-8.7,6.3c-1.7-0.2-3.4-0.3-5.1-0.3h0h0c-5.6,0-11.2,0.4-16.7,1.1c-0.8-1.4-4-6.5-9.8-11.6
		c-6.5-5.7-16.3-11.3-29.8-11.9c-0.1-0.2-0.2-0.4-0.4-0.5C33.9-16.6,30.1-20.3,25.7-23.3z M55,15.9c-2.9-2.5-6.5-5.1-10.7-7.1
		c-0.2-2-0.6-4.1-1.1-6.2c6.2,2.2,11.2,5.6,15,8.9c1.2,1,2.2,2,3.2,3c-2.1,0.5-4.1,1-6.2,1.6C55.1,16,55.1,16,55,15.9z M3.7,14v-61
		c11.5,4.6-4,10.2,20,25.6c19.9,12.7,19.6,36.1,19,43.8c16-6.2,33-9.3,49.9-9.4c12.6,0.3,22.1,3.6,28.3,6.4c6.2,2.9,9.1,5.4,9.1,5.3
		c-23.3-6.6-47.9-6.8-71.3-0.5c0.6,0.2,1.2,0.3,1.9,0.5c15.9-4,32.4-5.1,48.6-3.2c17.7,2.2,28.3,8.5,34.5,13.7
		c6.2,5.3,8,9.5,8.7,11.5c-28.8-15.8-62.3-19.2-93.1-10.3c0.2,1,0.3,2.1,0.1,3.4c0,0-4-6.3-16.5-7.9c-7.5-0.9-10.7,0.4-12.6,1.7
		c3.7,1.4,9.7,0,9.7,0c-17.7,7.3-20.2-0.2-20.2-0.2C38.9,12,24.9-14.7,17-19.9C9.1-25.1,5.8-15.3,5.8-6.8c0,8.5,0,18.7,0,18.7
		C5.1,13.8,3.7,14,3.7,14z M69.6,12.7C68,10.6,65.7,8,62.7,5.4c-5.2-4.5-12.6-9.1-22.2-11c-0.8-1.8-1.7-3.5-2.6-5.1
		C50.7-10,60-4.5,66.3,0.9c3.3,2.9,5.8,5.8,7.4,8c0.8,1.1,1.4,2,1.8,2.6c0.1,0.1,0.1,0.2,0.2,0.3C73.6,12.1,71.6,12.4,69.6,12.7z
		 M62.5,14.2c-1.1-1.1-2.3-2.3-3.7-3.5c-4-3.5-9.3-7-16-9.3c-0.1-0.2-0.1-0.5-0.2-0.7c-0.5-1.8-1.1-3.5-1.7-5.1
		C50.1-2.5,57,1.8,62,6.2c2.8,2.4,4.9,4.8,6.5,6.8C68.4,13,68.2,13,68,13C66.2,13.4,64.4,13.8,62.5,14.2z"/>
</symbol>
<linearGradient id="SVGID_1_" gradientUnits="userSpaceOnUse" x1="-2.0139" y1="500" x2="-1.3068" y2="499.2929">
	<stop  offset="0" style="stop-color:#269F48"/>
	<stop  offset="0.9831" style="stop-color:#1E381F"/>
</linearGradient>
<g id="Layer_4">
	<g>
		<path d="M666.1,154.2c1.1,2.6,2.2,5.2,3.2,7.8c1.1-2.7,2.1-5.4,3.3-8c1.1-2.6,2.3-5.1,3.6-7.6l48.3-90.3c0.6-1.1,1.2-2,1.9-2.7
			c0.6-0.7,1.4-1.2,2.1-1.5c0.8-0.3,1.7-0.5,2.7-0.6c1-0.1,2.1-0.1,3.5-0.1h22.9v163.1h-26.7V109.1c0-2,0.1-4.1,0.2-6.4
			c0.1-2.3,0.3-4.7,0.5-7.1L682.2,188c-1.1,2.1-2.6,3.7-4.4,4.9c-1.8,1.2-3.9,1.7-6.3,1.7h-4.2c-2.4,0-4.5-0.6-6.3-1.7
			c-1.8-1.2-3.3-2.8-4.4-4.9l-50-92.8c0.3,2.5,0.5,4.9,0.6,7.3c0.1,2.4,0.2,4.6,0.2,6.6v105.3h-26.7V51.3h22.9c1.4,0,2.5,0,3.5,0.1
			c1,0.1,1.9,0.3,2.7,0.6c0.8,0.3,1.5,0.8,2.2,1.5s1.3,1.6,1.9,2.7l48.7,90.6C663.8,149.1,665,151.6,666.1,154.2z"/>
		<path d="M933.8,214.4h-23.5c-2.6,0-4.8-0.7-6.5-2c-1.7-1.3-2.9-3-3.7-4.9L888,174.2h-67.6l-12.2,33.3c-0.6,1.7-1.8,3.3-3.6,4.7
			c-1.8,1.4-3.9,2.1-6.5,2.1h-23.6l64.1-163.1h31L933.8,214.4z M828.2,152.8h52l-19.8-54.2c-0.9-2.4-1.9-5.2-3-8.5
			c-1.1-3.3-2.2-6.8-3.2-10.7c-1.1,3.8-2.1,7.4-3.1,10.7c-1,3.3-2,6.2-3,8.7L828.2,152.8z"/>
		<path d="M1048.9,51.3v24.9h-49.1v138.2h-30.3V76.2h-49.3V51.3H1048.9z"/>
		<path d="M1183.1,51.3v24.9h-49.1v138.2h-30.3V76.2h-49.3V51.3H1183.1z"/>
		<path d="M1236.6,214.4h-30.5V51.3h30.5V214.4z"/>
		<path d="M1416.6,214.4h-23.5c-2.6,0-4.8-0.7-6.5-2c-1.7-1.3-2.9-3-3.7-4.9l-12.2-33.3h-67.6l-12.2,33.3c-0.6,1.7-1.8,3.3-3.6,4.7
			c-1.8,1.4-3.9,2.1-6.5,2.1h-23.6l64.1-163.1h31L1416.6,214.4z M1311,152.8h52l-19.8-54.2c-0.9-2.4-1.9-5.2-3-8.5
			c-1.1-3.3-2.2-6.8-3.2-10.7c-1.1,3.8-2.1,7.4-3.1,10.7c-1,3.3-2,6.2-3,8.7L1311,152.8z"/>
		<path d="M805.3,284.8v8.1c0,2.6-0.8,5-2.4,7.2l-91.5,128.5h92.3v17.8H682.8v-8.6c0-2.3,0.7-4.4,2.1-6.4l91.6-128.8h-89.4v-17.8
			H805.3z"/>
		<path d="M966.4,446.4h-16.9c-2,0-3.5-0.5-4.7-1.5c-1.2-1-2.1-2.2-2.7-3.7l-15.1-39h-72.5l-15.1,39c-0.5,1.4-1.4,2.6-2.7,3.6
			c-1.3,1.1-2.9,1.6-4.7,1.6H815l64.6-161.6h22.2L966.4,446.4z M860.5,386.4h60.3l-25.4-65.8c-1.7-4.1-3.3-9.1-4.8-15.2
			c-0.8,3.1-1.6,5.9-2.4,8.5c-0.8,2.6-1.6,4.9-2.3,6.8L860.5,386.4z"/>
		<path d="M1054.2,430.5c4.4,0,8.4-0.2,12-0.6c3.6-0.4,7.1-1,10.3-1.9c3.2-0.8,6.3-1.8,9.1-3c2.9-1.2,5.7-2.5,8.6-4v-35.6h-25
			c-1.4,0-2.6-0.4-3.4-1.2c-0.9-0.8-1.3-1.8-1.3-3v-12.4h49.6v62c-4.1,2.9-8.3,5.5-12.7,7.7c-4.4,2.2-9.1,4-14.1,5.5
			c-5,1.5-10.4,2.6-16.1,3.3c-5.7,0.7-11.9,1.1-18.6,1.1c-11.7,0-22.5-2-32.3-6c-9.8-4-18.2-9.7-25.3-16.9
			c-7.1-7.3-12.6-16-16.5-26.1s-5.9-21.3-5.9-33.5c0-12.3,1.9-23.6,5.8-33.7c3.9-10.2,9.4-18.9,16.6-26.1
			c7.2-7.3,15.9-12.9,26.1-16.9c10.2-4,21.6-6,34.2-6c6.4,0,12.3,0.5,17.8,1.4c5.5,0.9,10.6,2.3,15.3,4.1c4.7,1.8,9,3.9,13,6.4
			c4,2.5,7.7,5.4,11.2,8.5l-6.2,9.9c-1.3,2-2.9,3-5,3c-1.2,0-2.5-0.4-3.9-1.2c-1.9-1.1-4-2.3-6.3-3.8c-2.3-1.5-5.2-3-8.5-4.3
			c-3.3-1.4-7.3-2.6-11.8-3.6c-4.6-1-9.9-1.5-16.2-1.5c-9.1,0-17.3,1.5-24.7,4.5c-7.4,3-13.6,7.2-18.8,12.7
			c-5.2,5.5-9.2,12.2-12,20.1c-2.8,7.9-4.2,16.7-4.2,26.4c0,10.2,1.4,19.3,4.3,27.3c2.9,8,7,14.8,12.2,20.4
			c5.3,5.6,11.5,9.8,18.7,12.7C1037.5,429,1045.4,430.5,1054.2,430.5z"/>
		<path d="M1297.8,365.6c0,12.1-1.9,23.2-5.8,33.3c-3.8,10.1-9.2,18.8-16.2,26.1s-15.4,13-25.2,17c-9.8,4-20.7,6-32.5,6
			c-11.9,0-22.7-2-32.5-6c-9.8-4-18.2-9.7-25.2-17c-7-7.3-12.4-16-16.2-26.1c-3.8-10.1-5.8-21.2-5.8-33.3c0-12.1,1.9-23.2,5.8-33.3
			c3.8-10.1,9.2-18.8,16.2-26.2c7-7.3,15.4-13,25.2-17.1c9.8-4.1,20.6-6.1,32.5-6.1c11.9,0,22.7,2,32.5,6.1
			c9.8,4.1,18.2,9.8,25.2,17.1s12.4,16.1,16.2,26.2C1295.9,342.4,1297.8,353.5,1297.8,365.6z M1275.3,365.6c0-9.9-1.4-18.8-4.1-26.7
			c-2.7-7.9-6.5-14.6-11.5-20c-5-5.5-11-9.6-18-12.6c-7.1-2.9-15-4.4-23.7-4.4c-8.6,0-16.5,1.5-23.6,4.4
			c-7.1,2.9-13.1,7.1-18.1,12.6c-5,5.5-8.9,12.1-11.6,20c-2.7,7.9-4.1,16.8-4.1,26.7s1.4,18.8,4.1,26.7c2.7,7.9,6.6,14.5,11.6,20
			c5,5.5,11,9.6,18.1,12.5c7.1,2.9,14.9,4.3,23.6,4.3c8.7,0,16.6-1.4,23.7-4.3c7.1-2.9,13.1-7.1,18-12.5c5-5.5,8.8-12.1,11.5-20
			C1274,384.5,1275.3,375.6,1275.3,365.6z"/>
	</g>
</g>
<g id="Layer_3">
	<path d="M379.4,198.1l-0.3-7.6c15.2,1.9,52.9-13.4,52.9-13.4c4.4-6.5-2.5-26.4-2.5-26.4c-3.7,13.9-49.6,29.1-52.6,30
		c-0.5-3.1-1-6.2-1.7-9.3c20.1-12.6,45.8-45.8,45.8-45.8l-10.8-28c0.2,20.5-27.5,50.3-38,60.9c-1-3.7-2.1-7.4-3.3-11
		c16.6-28.3,25.7-78.5,25.7-78.5l-13.6-26.2c-0.2,26.4-11.9,53.6-23.3,77.1c-12.4-25.9-29.2-48.4-47.6-67.3
		c15.9,24.1,32.9,52.4,26.2,93.2c-0.7,4.6-3.5,9.8-3.2,15.2c0.2,4.8,3.9,10.4,7,16.8c-9.2,13.3-21.5,25.3-33.8,29.7
		c-16.6,5.9-11.8,8.7-11.8,8.7h0c16.3,7.8,10.4,17.7,5.6,22.9c-0.8,0.6-1.7,1.5-2.8,2.7c0,0,0,0-0.1,0l-9.7,8.7
		c-5.4,3.3-10,3.8-11.4,3.9c-0.2,0-0.5,0-0.8-0.1v0c0,0,0,0,0,0c0,0,0,0,0,0v0c-0.3,0-0.6,0.1-0.8,0.1c-1.5-0.1-6-0.6-11.4-3.9
		l-9.7-8.7c0,0,0,0-0.1,0c-1-1.2-1.9-2.1-2.8-2.7c-4.8-5.2-10.7-15.1,5.6-22.9h0c0,0,4.8-2.8-11.8-8.7
		c-12.3-4.4-24.6-16.5-33.8-29.7c3.1-6.4,6.8-12,7-16.8c0.3-5.4-2.5-10.6-3.2-15.2C208.1,105,225,76.6,241,52.5
		c-18.4,18.9-35.2,41.5-47.6,67.3c-11.4-23.5-23.1-50.7-23.3-77.1L156.5,69c0,0,9.1,50.3,25.7,78.5c-1.2,3.6-2.3,7.3-3.3,11
		c-10.5-10.6-38.2-40.3-38-60.9l-10.8,28c0,0,25.7,33.2,45.8,45.8c-0.6,3.1-1.2,6.2-1.7,9.3c-2.9-1-48.8-16.2-52.6-30
		c0,0-6.9,19.9-2.5,26.4c0,0,37.8,15.2,52.9,13.4l-0.3,7.6c0,0-42.9,6-57.1-3.2c0,0,4.6,16.8,15.7,23.7l41.4-6.8
		c0,4.5,0.1,9.1,0.3,13.8c0.8,17.2,3.6,33.5,8,48.9c0.4,1.6,0.9,3.1,1.3,4.7c0,0,0.1-0.1,0.1-0.1c12.1,38.8,34.3,71.6,59.6,97.6
		l0.5-0.3c-13.5-20.4-27.7-43.8-27.7-75.2c0-5.7,0.5-11.6,1.5-17.8c0.7-4.3,3.2-9.3,3.3-14.5c0-0.3,0-0.5,0-0.7
		c-0.3-6.4-6.6-14.2-9.7-23.1c-3.8-11.1-6.7-21.2-8.7-32.4c0.6-3,1.3-6,2-8.9l0.7,7.6c0,0,20.8,11.7,33.5,13.9l0.9,4.7
		c0,0-27.4,1.3-32.6-4.9c0,0,1.3,10.9,5,13.2c0,0,21.9,0.5,28.8-3.2l1.7,3.7c0,0-19.3,10.8-28.4,8.9c0,0,6.2,7.3,13.2,8.6l19.1-11.3
		c0,0.4,0,0.6,0,0.6s-27.2,27.5-27.2,53.7c0,64.8,56.8,102.5,58.7,103.7v0c0,0,0,0,0,0c0,0,0,0,0,0v0c1.9-1.2,58.7-38.9,58.7-103.7
		c0-26.2-27.2-53.7-27.2-53.7s0-0.2,0-0.6l19.1,11.3c7-1.3,13.2-8.6,13.2-8.6c-9.1,1.8-28.4-8.9-28.4-8.9l1.7-3.7
		c6.9,3.7,28.8,3.2,28.8,3.2c3.7-2.3,5-13.2,5-13.2c-5.2,6.2-32.6,4.9-32.6,4.9l0.9-4.7c12.7-2.2,33.5-13.9,33.5-13.9l0.7-7.6
		c0.7,2.9,1.4,5.9,2,8.9c-2,11.3-4.9,21.4-8.7,32.4c-3,9-9.3,16.7-9.7,23.1c0,0.2,0,0.5,0,0.7c0,5.2,2.6,10.2,3.3,14.5
		c1,6.2,1.5,12.1,1.5,17.8c0,31.4-14.2,54.8-27.7,75.2l0.5,0.3c25.2-26,47.5-58.8,59.6-97.6c0,0,0.1,0.1,0.1,0.1
		c0.5-1.6,0.9-3.2,1.3-4.7c4.4-15.4,7.2-31.7,8-48.9c0.3-4.7,0.4-9.3,0.3-13.8l41.4,6.8c11.1-6.9,15.7-23.7,15.7-23.7
		C422.3,204.1,379.4,198.1,379.4,198.1z M204.8,244.5c0,0,13.3,21.4,12.3,23.8c0,0,0,0.5,0,0.7c0,0-1.5,8.2-2.7,12.3l-0.3,1.5
		c-1,6.2-1.2,10.7-1.2,16.4v2.1c2,30.2,12.1,53.2,26.6,72.9c-23.6-26.5-43.9-58.9-55.8-97c4.9-3.9,12.3-6.5,14-11.5
		c2.5-7.5-0.8-20.8-0.3-29.6c0.3-5.1,0.8-9.9,1.5-14.4C199.6,228.8,201.1,236,204.8,244.5z M237.3,219.5c0,0-24.9-9.5-33.6-20.6
		c1.2-4.3,2.5-8.6,4-13c7,8.9,19.9,23.9,30.7,29.6L237.3,219.5z M314,219.5l-1-4c10.8-5.7,23.6-20.7,30.7-29.6c1.5,4.4,2.8,8.7,4,13
		C338.9,210,314,219.5,314,219.5z M311.8,374.2c14.5-19.7,24.6-42.6,26.6-72.9v-2.1c0-5.7-0.2-10.1-1.2-16.4l-0.3-1.5
		c-1.2-4.1-2.7-12.3-2.7-12.3c0-0.2,0-0.7,0-0.7c-0.9-2.4,12.3-23.8,12.3-23.8c3.7-8.5,5.3-15.7,6-22.8c0.6,4.5,1.1,9.3,1.5,14.4
		c0.6,8.8-2.8,22.1-0.3,29.6c1.7,5,9.1,7.6,14,11.5C355.7,315.3,335.4,347.7,311.8,374.2z"/>
	<g>
		<path class="st1" d="M378.2,310.7C354,350.5,318,382.7,318,382.5c0,0.2,35.6-32.4,59.3-72.3c25.1-39.3,35.5-86.5,35.3-87.4
			c0-0.1,0.1-0.2,0.1-0.3l-23.5-3.9c0.1,1.1,0,5.3,0,5.3c2.5,25.7-11.2,112.9-107,188c2.4-1.3,5.7-3.1,9.5-5.5
			c9.2-5.8,23-14.8,36.7-30l1.4-1.4c29.3-28.4,61.8-71.5,90.2-148.7l0.9-2.4l-1.6-0.3C419.5,224.8,403.7,271.6,378.2,310.7z"/>
		<path d="M282.4,412.4l-0.5-0.8c40.8-32,72-70.8,90.2-112.3c14.4-32.9,18-61.1,16.6-75.3c0-0.1,0.1-4.2,0-5.3l0-0.6l24.8,4.1
			l-0.3,0.6c0,0.1,0,0.1-0.1,0.2l0,0c-0.4,4-10.8,49.2-35.3,87.5c-0.6,1-1.1,1.9-1.7,2.9c0.6-1,1.2-2,1.8-2.9l0,0
			c25.3-38.7,40.9-85.3,41-86.7l-0.1-0.7l0.7,0.2l2.2,0.4l-1.1,3c-23.9,65-52.6,112.4-90.3,148.9l-1.4,1.4
			c-14.2,15.8-28.9,25.1-36.8,30C288.6,409,285.4,410.8,282.4,412.4z M389.7,219.3c0,1.6,0,4.5,0,4.7c1.4,14.2-2.2,42.6-16.7,75.7
			c-17.5,40-47.1,77.5-85.7,108.9c1.4-0.8,2.8-1.7,4.2-2.6c7.9-5,22.5-14.2,36.6-29.9l1.4-1.4c37.6-36.4,66.2-83.6,90.1-148.5
			l0.7-1.8l-0.5-0.1c-1.5,6-17.4,50.5-41.1,86.7c-12.6,20.6-28.2,39.1-39.2,50.9c-8.4,9.1-18.5,19-21,20.8c-0.3,0.2-0.5,0.3-0.6,0.3
			l0,0c0,0,0,0,0,0l0.1-0.5l-0.3-0.4c0.3-0.2,35.3-32,59.2-72.2c24-37.6,34.9-83.8,35.2-87L389.7,219.3z"/>
	</g>
	<g>
		<path class="st1" d="M173.4,310.7c24.2,39.8,60.2,72.1,60.3,71.9c0,0.2-35.6-32.4-59.3-72.3c-25.1-39.3-35.5-86.5-35.3-87.4
			c0-0.1-0.1-0.2-0.1-0.3l23.5-3.9c-0.1,1.1,0,5.3,0,5.3c-2.5,25.7,11.2,112.9,107,188c-2.4-1.3-5.7-3.1-9.5-5.5
			c-9.2-5.8-23-14.8-36.7-30l-1.4-1.4c-29.3-28.4-61.8-71.5-90.2-148.7l-0.9-2.4l1.6-0.3C132.1,224.8,147.8,271.6,173.4,310.7z"/>
		<path d="M269.2,412.4c-3-1.6-6.2-3.5-9.6-5.6c-7.9-5-22.6-14.3-36.8-30.1l-1.4-1.4c-37.7-36.5-66.4-83.8-90.3-148.9l-1.1-3
			l2.8-0.5l-0.1,0.7c0.1,1.4,15.7,47.9,41,86.6l0,0c0.6,1,1.2,2,1.8,3c-0.6-1-1.2-1.9-1.8-2.9c-24.5-38.3-34.9-83.5-35.3-87.5l0,0
			c0-0.1,0-0.1-0.1-0.2l-0.3-0.6l24.8-4.1l0,0.6c-0.1,1.1,0,5.2,0,5.2c-1.4,14.2,2.2,42.4,16.6,75.3c18.2,41.5,49.4,80.3,90.2,112.3
			L269.2,412.4z M131.4,224.3l0.7,1.8c23.9,64.9,52.5,112.1,90.1,148.5l1.4,1.4c14.1,15.7,28.8,24.9,36.6,29.9
			c1.4,0.9,2.8,1.8,4.2,2.6c-38.6-31.3-68.2-68.9-85.7-108.9c-14.5-33.1-18.1-61.5-16.7-75.8c0-0.1-0.1-3.1,0-4.6l-22.4,3.7
			c0.1,2.1,10.9,48.9,35.2,87c23.8,40.2,58.9,72,59.2,72.2l-0.3,0.4l0,0l0.1,0.5c0,0,0,0,0,0h0c-0.1,0-0.3-0.1-0.6-0.3
			c-2.5-1.9-12.6-11.7-21-20.8c-10.9-11.8-26.6-30.3-39.2-50.9c-23.7-36.2-39.6-80.7-41.1-86.7L131.4,224.3z"/>
	</g>
	
		<use xlink:href="#Simboli_reali_vettoriali_2"  width="306.6" height="95.5" id="XMLID_1_" x="-153.3" y="-47.7" transform="matrix(1.5533 0 0 -1.5533 275.6419 383.0529)" style="overflow:visible;"/>
	<g>
		<path class="st2" d="M296.4,317.8c-0.7,0.7-1.4,1.3-2.3,1.9c-1.5,0.9-2.5,1.6-3,2l-2.7-31c0.1-3.1,0-5.3-0.5-6.6
			c-0.6,1.4-1.9,5.3-3.9,11.9c-2.1,7-3.7,11.9-4.7,14.6c-0.4,1-0.7,2.4-0.9,4.1c-0.2,1.6-0.4,2.7-0.8,3.4c-0.6,1.1-1.8,2.2-3.6,3.2
			l-10-35.7h-0.8c0,3.6-0.7,10.8-2.1,21.7c-0.2,2.8-0.4,5.6-0.6,8.5c-0.3,2-1.6,4-3.9,6v-1.2c0.4-1.1,1.2-5.8,2.3-14.1
			c1.3-10.4,2-19.6,2-27.6c0-1.9-0.1-3.3-0.4-4.1c-0.3-0.8-0.8-1.3-1.5-1.3c-0.5,0-1.2,0.2-2.1,0.7h-1c0.1-0.1,0.6-0.6,1.5-1.5
			c0.5-0.5,0.9-1.1,1.2-1.8h5.8c0.6,3.2,2.2,10,4.8,20.6c0.1,0.2,1.6,5.2,4.5,14.7c0.3,1,0.6,2,0.9,3c0.4,1.3,0.9,2.3,1.4,2.9
			c2.2-3.8,4.6-11,7.2-21.5c1.2-5.4,2.4-10.7,3.6-16.1c0.1-0.4,0.5-0.8,1.1-1.4c0.9-0.7,1.6-1.5,2.1-2.3h0.8
			c0.2,0.9,0.4,4.2,0.6,10.1c0.2,6.8,0.4,11.4,0.7,13.8c0.5,4.7,1.2,11,2,18.8c0.3,2.9,0.8,4.4,1.5,4.4
			C296,317.8,296.3,317.8,296.4,317.8z"/>
	</g>
</g>
</svg>
