<svg xmlns="http://www.w3.org/2000/svg" xmlns:xlink="http://www.w3.org/1999/xlink" viewBox="0 0 476.16 414.44"><defs><style>.a{fill:#0eaedd;stroke:#1d1d1b;}.b{fill:#fff;}</style><symbol id="a" viewBox="0 0 306.55 95.5"><path class="a" d="M99.24,31.32a48,48,0,0,0,9.62,6.44,61,61,0,0,1-.18-9.59Q104,29.91,99.24,31.32ZM116.45,60l-.35-.54A47.55,47.55,0,0,1,86.34,47.62a48.91,48.91,0,0,1-9.82-11.55A142.23,142.23,0,0,1,59.8,37.15h0c-1.72,0-3.42-.15-5.1-.3-5.81,2.86-9.21,5.23-8.73,6.3.75,1.69,10.78-.4,23.83-4.65C58,45.24,50,51.33,51,52.9S61.52,51,73.71,45C63.14,53.26,56.21,60.4,57.38,61.81s10-3.38,21.16-11c-9.2,9.64-15,17.66-13.65,18.88S74.3,65,84.16,55.94C76.48,66.68,71.89,75.37,73.4,76.37s8.61-6,17-16.15c-6,11.59-9.34,20.73-7.71,21.5s7.68-7,14.55-18.13C93,75.76,91,85.13,92.72,85.66S99.34,77.78,104.55,66c-2.51,12.46-3.15,21.86-1.36,22.14s5.46-8.56,8.92-20.74c-.68,12.48,0,21.7,1.84,21.74s4.21-9,5.88-21.34C121,80,123,88.9,124.85,88.7c1.63-.18,2.66-7.44,2.75-17.67A39.9,39.9,0,0,1,116.45,60ZM98.07,31.66q-3.07.88-6.17,1.62c1,1,2,2,3.2,3a47.27,47.27,0,0,0,15,8.89A55.26,55.26,0,0,1,109,39a49,49,0,0,1-10.72-7.13Zm49.36,4.23V54.55c0,8.46-3.27,18.28-11.16,13.08s-21.93-31.94-2.69-53.29c0,0-2.5-7.5-20.2-.19,0,0,6.07-1.41,9.75,0-1.91,1.28-5.11,2.65-12.63,1.73C98,14.35,94,8,94,8A8.53,8.53,0,0,0,94,11.36,122.44,122.44,0,0,1,.91,1.07c.71,2,2.46,6.17,8.69,11.49C15.79,17.71,26.47,24,44.13,26.25a133.46,133.46,0,0,0,48.56-3.16l1.86.51A134.39,134.39,0,0,1,23.23,23a47.73,47.73,0,0,0,9.13,5.32,72.47,72.47,0,0,0,28.33,6.41,141,141,0,0,0,49.89-9.42c-.68,7.71-.92,31.09,19,43.82,24,15.39,8.46,21,20,25.59v-61S148.2,34,147.43,35.89Zm-69.8,0,.16.27c.39.63,1,1.54,1.8,2.64a50.73,50.73,0,0,0,7.42,8,46.49,46.49,0,0,0,28.42,11.58,42.86,42.86,0,0,1-2.63-5.08,47.63,47.63,0,0,1-22.23-11A52,52,0,0,1,83.63,35Q80.64,35.52,77.63,35.92Zm7.6-1.21-.46.08a51,51,0,0,0,6.48,6.79A46.66,46.66,0,0,0,112.32,52.2a47.36,47.36,0,0,1-1.73-5.1c-.07-.23-.13-.46-.19-.69a48.19,48.19,0,0,1-16-9.31c-1.37-1.2-2.6-2.4-3.68-3.54Q88,34.19,85.23,34.7Z"/><path class="a" d="M197.87,28.17a60.9,60.9,0,0,1-.18,9.59,48.09,48.09,0,0,0,9.62-6.44Q202.53,29.91,197.87,28.17ZM178.94,71c.09,10.22,1.13,17.49,2.75,17.67,1.83.2,3.86-8.66,5-20.9,1.67,12.31,4.06,21.38,5.88,21.34s2.53-9.26,1.84-21.74c3.47,12.18,7.14,21,8.93,20.74S204.51,78.45,202,66c5.21,11.78,10.11,20.19,11.83,19.66s-.26-9.91-4.56-22.07c6.87,11.12,12.92,18.9,14.55,18.13s-1.67-9.91-7.71-21.5c8.43,10.19,15.54,17.15,17,16.15s-3.08-9.69-10.76-20.44c9.85,9,17.91,15,19.26,13.76S237.21,60.46,228,50.81c11.12,7.61,20,12.4,21.16,11S243.41,53.26,232.84,45c12.19,6,21.72,9.5,22.69,7.94s-7-7.66-18.75-14.41c13,4.25,23.08,6.34,23.83,4.65.48-1.07-2.92-3.44-8.73-6.3-1.68.15-3.38.26-5.1.3h0A142.25,142.25,0,0,1,230,36.06a48.9,48.9,0,0,1-9.82,11.55,47.55,47.55,0,0,1-29.76,11.87l-.35.54A39.91,39.91,0,0,1,178.94,71Zm29.34-39.2A48.94,48.94,0,0,1,197.55,39a55,55,0,0,1-1.11,6.24,47.32,47.32,0,0,0,15-8.89c1.18-1,2.24-2,3.2-3q-3.1-.74-6.17-1.62ZM157,33.78v61c11.54-4.62-4-10.2,20-25.59,19.88-12.72,19.64-36.11,19-43.82a141,141,0,0,0,49.88,9.42,72.47,72.47,0,0,0,28.33-6.41A47.78,47.78,0,0,0,283.31,23,134.4,134.4,0,0,1,212,23.6l1.86-.51a133.46,133.46,0,0,0,48.56,3.16c17.66-2.25,28.33-8.54,34.53-13.69,6.23-5.32,8-9.5,8.69-11.49a122.44,122.44,0,0,1-93.12,10.29A8.57,8.57,0,0,0,212.6,8s-4,6.35-16.54,7.89c-7.52.93-10.73-.45-12.63-1.73,3.68-1.41,9.75,0,9.75,0-17.7-7.31-20.2.19-20.2.19,19.24,21.35,5.19,48.09-2.69,53.29S159.12,63,159.12,54.55V35.89C158.35,34,157,33.78,157,33.78ZM222.92,35A51.87,51.87,0,0,1,216,42.36a47.62,47.62,0,0,1-22.23,11,42.7,42.7,0,0,1-2.63,5.08,46.49,46.49,0,0,0,28.42-11.58,50.79,50.79,0,0,0,7.42-8c.81-1.09,1.4-2,1.8-2.64l.16-.27Q225.91,35.52,222.92,35Zm-7.11-1.45c-1.08,1.15-2.31,2.35-3.68,3.54a48.21,48.21,0,0,1-16,9.31l-.19.69a47.78,47.78,0,0,1-1.73,5.1A46.67,46.67,0,0,0,215.3,41.58a51.1,51.1,0,0,0,6.48-6.79l-.46-.08Q218.55,34.19,215.81,33.55Z"/></symbol></defs><title>Logo</title><path d="M353.2,193l-.3-7.62c15.19,1.85,52.95-13.38,52.95-13.38,4.39-6.47-2.54-26.36-2.54-26.36-3.74,13.86-49.63,29.08-52.55,30q-.73-4.71-1.65-9.31c20.11-12.59,45.79-45.78,45.79-45.78l-10.79-28c.19,20.54-27.47,50.3-38,60.88q-1.49-5.61-3.26-11c16.59-28.26,25.73-78.54,25.73-78.54L355,37.63c-.21,26.39-11.9,53.63-23.27,77.1-12.43-25.87-29.23-48.42-47.6-67.34C300.05,71.5,317,99.81,310.38,140.56c-.75,4.58-3.5,9.82-3.23,15.2.24,4.77,3.9,10.39,7,16.76-9.16,13.27-21.46,25.33-33.8,29.73-16.56,5.9-11.78,8.69-11.78,8.69h0c16.31,7.79,10.39,17.71,5.62,22.93a19.25,19.25,0,0,0-2.77,2.73l-.05,0-9.66,8.72a25.83,25.83,0,0,1-11.44,3.89l-.78-.1h0l-.78.1a25.83,25.83,0,0,1-11.44-3.89l-9.66-8.72-.05,0a19.32,19.32,0,0,0-2.77-2.73c-4.76-5.22-10.69-15.14,5.62-22.93h0s4.79-2.79-11.78-8.69c-12.34-4.4-24.64-16.46-33.8-29.73,3.09-6.37,6.76-12,7-16.76.27-5.38-2.49-10.63-3.23-15.2-6.63-40.75,10.33-69.06,26.25-93.17-18.37,18.93-35.17,41.48-47.6,67.34C155.78,91.26,144.1,64,143.88,37.63L130.3,63.88s9.14,50.28,25.73,78.54q-1.76,5.44-3.26,11c-10.53-10.58-38.18-40.34-38-60.88l-10.79,28s25.69,33.19,45.79,45.78q-.92,4.61-1.65,9.31c-2.92-1-48.81-16.17-52.55-30,0,0-6.93,19.9-2.53,26.36,0,0,37.75,15.23,52.95,13.38l-.3,7.62s-42.9,6-57.11-3.18c0,0,4.56,16.81,15.7,23.67l41.39-6.81q0,6.81.35,13.8a211.63,211.63,0,0,0,8,48.88c.42,1.57.86,3.15,1.32,4.73l.08-.08c12.09,38.84,34.34,71.65,59.56,97.63l.48-.3c-13.5-20.42-27.69-43.82-27.69-75.21a109.61,109.61,0,0,1,1.48-17.79c.7-4.31,3.25-9.3,3.25-14.5,0-.25,0-.5,0-.74-.34-6.42-6.62-14.17-9.66-23.13a209.78,209.78,0,0,1-8.65-32.44c.6-3,1.28-6,2-8.91l.67,7.58s20.84,11.69,33.5,13.88l.94,4.7s-27.36,1.3-32.6-4.92c0,0,1.34,10.9,5,13.22,0,0,21.86.47,28.78-3.21l1.65,3.74s-19.34,10.76-28.39,8.91c0,0,6.17,7.3,13.18,8.59L218,239.79c0,.37,0,.6,0,.6s-27.25,27.5-27.25,53.71c0,64.8,56.85,102.48,58.71,103.7v0h0v0c1.86-1.22,58.71-38.9,58.71-103.7,0-26.21-27.25-53.71-27.25-53.71s0-.23,0-.6L300,251.07c7-1.28,13.18-8.59,13.18-8.59-9.05,1.85-28.39-8.91-28.39-8.91l1.65-3.74c6.92,3.67,28.78,3.21,28.78,3.21,3.65-2.32,5-13.22,5-13.22-5.24,6.22-32.6,4.92-32.6,4.92l.94-4.7c12.66-2.19,33.5-13.88,33.5-13.88l.68-7.58c.74,2.93,1.42,5.89,2,8.91a209.78,209.78,0,0,1-8.65,32.44c-3,9-9.32,16.71-9.66,23.13,0,.24,0,.49,0,.74,0,5.2,2.55,10.19,3.25,14.5a109.46,109.46,0,0,1,1.48,17.79c0,31.39-14.2,54.79-27.69,75.21l.48.3c25.22-26,47.47-58.79,59.56-97.63l.08.08q.69-2.37,1.32-4.73a211.71,211.71,0,0,0,8-48.88q.39-7,.35-13.8l41.38,6.81c11.14-6.86,15.7-23.67,15.7-23.67C396.1,199,353.2,193,353.2,193Zm-174.6,46.39s13.26,21.36,12.33,23.78c0,0,0,.48,0,.72,0,0-1.48,8.23-2.72,12.33l-.34,1.5a92.29,92.29,0,0,0-1.25,16.37v2.1c2,30.24,12.12,53.19,26.6,72.88-23.57-26.48-43.87-58.93-55.83-97,4.88-3.92,12.28-6.5,14-11.53,2.51-7.54-.84-20.78-.26-29.6.34-5.11.83-9.88,1.48-14.42A75.7,75.7,0,0,0,178.61,239.36Zm32.45-25s-24.91-9.52-33.63-20.58c1.19-4.27,2.53-8.55,4-13,7,8.88,19.91,23.87,30.67,29.55Zm76.76,0-1-4c10.76-5.68,23.63-20.67,30.67-29.55,1.47,4.4,2.81,8.68,4,13C312.73,204.8,287.82,214.32,287.82,214.32ZM285.63,369c14.47-19.69,24.56-42.64,26.6-72.88v-2.1A92.25,92.25,0,0,0,311,277.69l-.34-1.5c-1.25-4.09-2.72-12.33-2.72-12.33,0-.24,0-.72,0-.72-.92-2.42,12.33-23.78,12.33-23.78a75.74,75.74,0,0,0,6-22.84c.65,4.54,1.14,9.31,1.48,14.42.58,8.82-2.77,22.06-.26,29.6,1.68,5,9.07,7.61,14,11.53C329.5,310.11,309.2,342.56,285.63,369Z" transform="translate(-11.36 -37.63)"/><path class="a" d="M352,305.51c-24.24,39.84-60.23,72.06-60.26,71.87,0,.2,35.62-32.37,59.31-72.32,25.06-39.29,35.49-86.55,35.25-87.38a1.47,1.47,0,0,1,.1-.26L363,213.54c.09,1.13,0,5.28,0,5.28,2.47,25.75-11.22,112.94-107,188,2.43-1.28,5.65-3.1,9.54-5.55,9.24-5.83,23-14.77,36.71-30l1.41-1.4c29.31-28.41,61.79-71.47,90.18-148.7l.91-2.41-1.56-.26C393.27,219.69,377.53,266.49,352,305.51Z" transform="translate(-11.36 -37.63)"/><path class="a" d="M147.16,305.51c24.24,39.84,60.23,72.06,60.26,71.87,0,.2-35.62-32.37-59.32-72.32-25.06-39.29-35.49-86.55-35.25-87.38a1.47,1.47,0,0,0-.1-.26l23.47-3.88c-.09,1.13,0,5.28,0,5.28-2.47,25.75,11.22,112.94,107,188-2.43-1.28-5.66-3.1-9.54-5.55-9.24-5.83-23-14.77-36.71-30l-1.41-1.4c-29.31-28.41-61.79-71.47-90.18-148.7l-.91-2.41,1.57-.26C105.91,219.69,121.64,266.49,147.16,305.51Z" transform="translate(-11.36 -37.63)"/><use width="306.55" height="95.5" transform="translate(0 266.11) scale(1.55)" xlink:href="#a"/><path d="M353.2,193l-.3-7.62c15.19,1.85,52.95-13.38,52.95-13.38,4.39-6.47-2.54-26.36-2.54-26.36-3.74,13.86-49.63,29.07-52.55,30q-.73-4.71-1.65-9.31c20.11-12.59,45.79-45.78,45.79-45.78l-10.79-28c.19,20.54-27.47,50.3-38,60.88q-1.49-5.61-3.26-11c16.59-28.26,25.73-78.54,25.73-78.54L355,37.63c-.21,26.39-11.9,53.63-23.27,77.1-12.43-25.87-29.23-48.42-47.6-67.34C300.05,71.5,317,99.81,310.38,140.56c-.75,4.58-3.5,9.82-3.23,15.2.24,4.77,3.9,10.39,7,16.76-9.16,13.27-21.46,25.33-33.8,29.73-16.56,5.9-11.78,8.69-11.78,8.69h0c16.31,7.79,10.39,17.71,5.62,22.93a19.29,19.29,0,0,0-2.77,2.73l-.05,0-9.66,8.72a25.82,25.82,0,0,1-11.44,3.89l-.78-.09h0l-.78.09a25.82,25.82,0,0,1-11.44-3.89l-9.66-8.72-.05,0a19.37,19.37,0,0,0-2.77-2.73c-4.76-5.22-10.69-15.14,5.62-22.93h0s4.79-2.79-11.78-8.69c-12.34-4.4-24.64-16.46-33.8-29.73,3.09-6.37,6.76-12,7-16.76.27-5.38-2.49-10.63-3.23-15.2-6.63-40.75,10.33-69.06,26.25-93.17-18.37,18.93-35.17,41.48-47.6,67.34C155.78,91.26,144.1,64,143.88,37.63L130.3,63.88s9.14,50.28,25.73,78.54q-1.76,5.44-3.26,11c-10.53-10.58-38.18-40.34-38-60.88l-10.79,28s25.69,33.19,45.79,45.78q-.92,4.61-1.65,9.31c-2.92-1-48.81-16.17-52.55-30,0,0-6.93,19.89-2.53,26.36,0,0,37.75,15.23,52.95,13.38l-.3,7.62s-42.9,6-57.11-3.18c0,0,4.56,16.81,15.7,23.67l41.39-6.81q0,6.81.35,13.8a211.63,211.63,0,0,0,8,48.88c.42,1.57.86,3.15,1.32,4.73l.08-.08c12.09,38.84,34.34,71.65,59.56,97.63l.48-.3c-3.58-5.42-7.21-11.06-10.62-17a4.92,4.92,0,0,1-1.67-1.9,9.43,9.43,0,0,1-.83-2.58c-8.24-15.34-14.58-32.75-14.58-53.73a109.61,109.61,0,0,1,1.48-17.79c.7-4.31,3.25-9.3,3.25-14.5,0-.25,0-.5,0-.74-.34-6.42-6.62-14.17-9.66-23.13a209.79,209.79,0,0,1-8.65-32.44c.6-3,1.28-6,2-8.91l.67,7.58s20.84,11.69,33.5,13.88l.94,4.7s-27.36,1.3-32.6-4.92c0,0,1.34,10.9,5,13.22,0,0,21.86.47,28.78-3.21l1.65,3.74s-19.34,10.76-28.39,8.91c0,0,6.17,7.3,13.18,8.59L218,239.79c0,.37,0,.6,0,.6s-27.25,27.5-27.25,53.71A108.77,108.77,0,0,0,193,316.24a6.07,6.07,0,0,1,1.66-1.44c7.52-4.48,17.83-2.35,24.38,3a18.85,18.85,0,0,1,6.84,12.41l.31.13c7,2.34,4.55,13-2.09,12a26.64,26.64,0,0,1-1.2,2.43,5.76,5.76,0,0,1-1.64,5.49c-2.37,2.11-5,2.66-8,3l-.25,0a5.6,5.6,0,0,1-4,2,149.62,149.62,0,0,0,22.38,27.5c.21-.21.44-.42.67-.62s.37-.29.55-.43a17.93,17.93,0,0,1-.19-2.59,17.29,17.29,0,0,1,4.19-11.59c-2.36-3.16-4-7.81-2.91-11.67a11.69,11.69,0,0,1,5.88-7.55,16.76,16.76,0,0,1,2-3.66,7.41,7.41,0,0,1,6-3,10.94,10.94,0,0,1,8.05-3.76c8.59,0,9.22,7.91,7.41,14.83a14.78,14.78,0,0,1,5.24,9.76,17.71,17.71,0,0,1-1.45,8,13.73,13.73,0,0,1,2.68,8.68,13.37,13.37,0,0,1-.16,1.74A146.64,146.64,0,0,0,292.53,351c-5.58,3.15-13.4,1-14.5-6.35v-.09c-4.28-1.93-8.13-6.63-9.64-10.66-3.3-8.82-.3-21.27,10.61-22.33a30.27,30.27,0,0,1,7,.52,25.25,25.25,0,0,1,11.38-7.33c3.17-1.07,6.63,1.2,7.5,4.26a12.64,12.64,0,0,1-.39,8.68,5.16,5.16,0,0,1,.78,1.61,109,109,0,0,0,2.94-25.17c0-26.21-27.25-53.71-27.25-53.71s0-.23,0-.6L300,251.07c7-1.28,13.18-8.59,13.18-8.59-9.05,1.85-28.39-8.91-28.39-8.91l1.65-3.74c6.92,3.67,28.78,3.21,28.78,3.21,3.65-2.32,5-13.22,5-13.22-5.24,6.22-32.6,4.92-32.6,4.92l.94-4.7c12.66-2.19,33.5-13.88,33.5-13.88l.68-7.58c.74,2.93,1.42,5.89,2,8.91a209.8,209.8,0,0,1-8.65,32.44c-3,9-9.32,16.71-9.66,23.13,0,.24,0,.49,0,.74,0,5.2,2.55,10.19,3.25,14.5a109.46,109.46,0,0,1,1.48,17.79c0,31.39-14.2,54.79-27.69,75.21l.48.3c25.22-26,47.47-58.79,59.56-97.63l.08.08q.69-2.37,1.32-4.73a211.71,211.71,0,0,0,8-48.88q.39-7,.35-13.8l41.38,6.81c11.14-6.86,15.7-23.67,15.7-23.67C396.1,199,353.2,193,353.2,193Zm-174.6,46.39s13.26,21.36,12.33,23.78c0,0,0,.48,0,.72,0,0-1.48,8.23-2.72,12.33l-.34,1.5a92.29,92.29,0,0,0-1.25,16.37v2.1c2,30.24,12.12,53.19,26.6,72.88-23.57-26.48-43.87-58.93-55.83-97,4.88-3.92,12.28-6.5,14-11.53,2.51-7.54-.84-20.78-.26-29.6.34-5.11.83-9.88,1.48-14.42A75.7,75.7,0,0,0,178.61,239.36Zm32.45-25s-24.91-9.52-33.63-20.58c1.19-4.27,2.53-8.55,4-13,7,8.88,19.91,23.87,30.67,29.55Zm76.76,0-1-4c10.76-5.68,23.63-20.67,30.67-29.55,1.47,4.4,2.81,8.68,4,13C312.73,204.8,287.82,214.32,287.82,214.32ZM285.63,369c14.47-19.69,24.56-42.64,26.6-72.88v-2.1A92.25,92.25,0,0,0,311,277.69l-.34-1.5c-1.25-4.09-2.72-12.33-2.72-12.33,0-.24,0-.72,0-.72-.92-2.42,12.33-23.78,12.33-23.78a75.74,75.74,0,0,0,6-22.84c.65,4.54,1.14,9.31,1.48,14.42.58,8.82-2.77,22.06-.26,29.6,1.68,5,9.07,7.61,14,11.53C329.5,310.11,309.2,342.56,285.63,369Z" transform="translate(-11.36 -37.63)"/><path class="b" d="M270.17,312.63a13.62,13.62,0,0,1-2.32,1.91q-2.23,1.41-3,2l-2.7-31a18.35,18.35,0,0,0-.54-6.63q-.92,2-3.86,11.91-3.15,10.56-4.7,14.55a17.37,17.37,0,0,0-.88,4.11,9.33,9.33,0,0,1-.84,3.38,8.65,8.65,0,0,1-3.56,3.19l-10-35.74H237q0,5.34-2.05,21.74l-.59,8.47q-.5,3-3.94,6v-1.17q.67-1.72,2.31-14.06a217.63,217.63,0,0,0,2-27.63,14.51,14.51,0,0,0-.42-4.14q-.42-1.26-1.47-1.26a5.17,5.17,0,0,0-2.14.68h-1q.13-.18,1.51-1.54a5.64,5.64,0,0,0,1.22-1.78h5.79q.88,4.73,4.82,20.63.08.37,4.53,14.74.46,1.47.88,3a10.29,10.29,0,0,0,1.38,2.89q3.31-5.77,7.21-21.49l3.61-16.09a2.94,2.94,0,0,1,1.13-1.35,10.81,10.81,0,0,0,2.1-2.33h.8q.29,1.29.59,10.13.34,10.13.67,13.81.8,7.12,2,18.79.38,4.36,1.51,4.36A2.79,2.79,0,0,0,270.17,312.63Z" transform="translate(-11.36 -37.63)"/></svg>